<?xml version="1.0" encoding="utf-8"?>
<!-- Generator: Adobe Illustrator 16.0.0, SVG Export Plug-In . SVG Version: 6.00 Build 0)  -->
<!DOCTYPE svg PUBLIC "-//W3C//DTD SVG 1.1//EN" "http://www.w3.org/Graphics/SVG/1.1/DTD/svg11.dtd">
<svg version="1.1" id="Layer_1" xmlns="http://www.w3.org/2000/svg" xmlns:xlink="http://www.w3.org/1999/xlink" x="0px" y="0px"
	 width="1821.182px" height="438px" viewBox="0 0 1821.182 438" enable-background="new 0 0 1821.182 438" xml:space="preserve">
<g>
	<g>
		<path fill="#FCFCFC" d="M830.092,357.223h-74.333l-47.036-173.865l-47.456,173.865h-73.913L507.14,75.846h70.974l49.136,177.225
			l48.295-177.225h65.936l48.295,177.225L838.91,75.846h71.393L830.092,357.223z"/>
		<path fill="#FCFCFC" d="M1050.571,75.846c63.416,0,103.311,39.057,103.311,97.012c0,59.215-41.156,98.271-106.25,98.271h-66.354
			v86.094h-69.294V75.846H1050.571z M1042.592,213.175c26.877,0,43.256-15.538,43.256-39.476c0-22.678-16.379-38.637-43.256-38.637
			h-61.314v78.113H1042.592z"/>
		<path fill="#FCFCFC" d="M1358.4,357.223l-73.914-107.512l-49.556,59.215v48.297h-69.294V75.846h69.294v139.008l117.17-139.008
			h78.531l-101.21,120.529l112.97,160.848H1358.4z"/>
		<path fill="#FCFCFC" d="M1516.303,84.246c0,21.418-16.379,37.377-39.058,37.377c-22.677,0-38.635-15.959-38.635-37.377
			c0-20.579,15.958-38.217,38.635-38.217C1499.924,46.03,1516.303,63.668,1516.303,84.246z M1443.649,357.223V146.401h67.192
			v210.821H1443.649L1443.649,357.223z"/>
		<path fill="#FCFCFC" d="M1693.944,347.982c-16.38,8.818-33.599,15.538-57.535,15.538c-52.494,0-83.99-28.558-83.99-83.992v-79.792
			h-38.22v-53.335h38.22V75.846h67.191V146.4h62.153v53.335h-62.153v73.073c0,21.838,10.499,30.656,28.139,30.656
			c9.239,0,21.838-3.358,30.657-8.398L1693.944,347.982z"/>
	</g>
	<g>
		<g>
			<g>
				<g>
					<path fill="#FB0E2A" d="M262.241,336.943c65.034,0,117.943-52.909,117.943-117.944c0-16.266-3.288-32.059-9.772-46.941
						l-3.109-7.137h72.495l1.049,3.714c4.611,16.332,6.95,33.277,6.95,50.364c0,102.316-83.24,185.558-185.556,185.558"/>
				</g>
			</g>
		</g>
		<path fill="#FFAE00" d="M262.241,404.557c-102.316,0-185.556-83.241-185.556-185.559c0-17.085,2.339-34.031,6.949-50.364
			l1.049-3.714h198.363v5.1c0,0.662-0.078,16.375-6.836,32.302c-9.277,21.861-26.467,33.417-49.711,33.417h-81.002
			c8.201,58.083,57.438,101.204,116.743,101.204"/>
		<path fill="#254ED5" d="M356.141,147.732c-22.285-29.412-56.653-46.676-93.9-46.676c-37.247,0-71.617,17.265-93.899,46.678H90.925
			c13.616-32.65,36.131-60.576,65.341-80.973c31.214-21.796,67.86-33.317,105.975-33.317c38.115,0,74.761,11.521,105.976,33.317
			c29.208,20.396,51.722,48.318,65.337,80.967L356.141,147.732z"/>
	</g>
</g>
</svg>
