<?xml version="1.0" encoding="utf-8"?>
<!-- Generator: Adobe Illustrator 16.0.0, SVG Export Plug-In . SVG Version: 6.00 Build 0)  -->
<!DOCTYPE svg PUBLIC "-//W3C//DTD SVG 1.1//EN" "http://www.w3.org/Graphics/SVG/1.1/DTD/svg11.dtd">
<svg version="1.1" id="Layer_1" xmlns="http://www.w3.org/2000/svg" xmlns:xlink="http://www.w3.org/1999/xlink" x="0px" y="0px"
	 width="1586.443px" height="351.641px" viewBox="0 0 1586.443 351.641" enable-background="new 0 0 1586.443 351.641"
	 xml:space="preserve">
<g>
	<g>
		<path fill="#FFFFFF" d="M629.674,344.664h-82.329L495.25,152.099l-52.561,192.565h-81.863l-88.841-311.64h78.607l54.421,196.286
			l53.49-196.286h73.026l53.49,196.286l54.421-196.286h79.072L629.674,344.664z"/>
		<path fill="#FFFFFF" d="M873.868,33.024c70.235,0,114.423,43.257,114.423,107.446c0,65.584-45.583,108.841-117.679,108.841
			h-73.491v95.353h-76.748V33.024H873.868z M865.03,185.123c29.769,0,47.909-17.21,47.909-43.722
			c0-25.118-18.141-42.792-47.909-42.792h-67.909v86.515H865.03z"/>
		<path fill="#FFFFFF" d="M1214.807,344.664l-81.863-119.074l-54.886,65.584v53.49h-76.747V33.024h76.747v153.96l129.772-153.96
			h86.98l-112.098,133.494l125.121,178.146H1214.807z"/>
		<path fill="#FFFFFF" d="M1389.694,42.327c0,23.722-18.141,41.397-43.258,41.397s-42.792-17.675-42.792-41.397
			c0-22.792,17.675-42.327,42.792-42.327S1389.694,19.536,1389.694,42.327z M1309.227,344.664V111.167h74.421v233.497H1309.227z"/>
		<path fill="#FFFFFF" d="M1586.443,334.431c-18.141,9.769-37.211,17.21-63.724,17.21c-58.142,0-93.026-31.629-93.026-93.026
			v-88.375h-42.327v-59.072h42.327V33.024h74.421v78.143h68.84v59.072h-68.84v80.933c0,24.188,11.629,33.955,31.164,33.955
			c10.233,0,24.187-3.721,33.955-9.303L1586.443,334.431z"/>
	</g>
	<g>
		<g>
			<path fill="#FFB229" d="M141.526,83.045c34.478,0,64.773,18.188,81.842,45.459h50.158c-20.521-52.89-71.949-90.486-132-90.486
				s-111.479,37.597-132,90.486h50.158C76.754,101.233,107.049,83.045,141.526,83.045z"/>
			<path fill="#FFB229" d="M277.753,141.133H230.03c5.132,11.779,7.997,24.765,7.997,38.412c0,53.211-43.29,96.501-96.5,96.501
				c-50.13,0-91.439-38.429-96.056-87.372c26.249,0,58.792,0,68.025,0c40.348,0,40.348-47.541,40.348-47.541H53.023H9.527H5.3
				C1.85,153.353,0,166.237,0,179.545c0,78.038,63.489,141.528,141.526,141.528c78.038,0,141.527-63.49,141.527-141.528
				C283.053,166.237,281.204,153.353,277.753,141.133z"/>
		</g>
	</g>
</g>
</svg>
