<?xml version="1.0" encoding="utf-8"?>
<!-- Generator: Adobe Illustrator 16.0.0, SVG Export Plug-In . SVG Version: 6.00 Build 0)  -->
<!DOCTYPE svg PUBLIC "-//W3C//DTD SVG 1.1//EN" "http://www.w3.org/Graphics/SVG/1.1/DTD/svg11.dtd">
<svg version="1.1" id="Layer_1" xmlns="http://www.w3.org/2000/svg" xmlns:xlink="http://www.w3.org/1999/xlink" x="0px" y="0px"
	 width="1821.182px" height="438px" viewBox="-326.571 -53.68 1821.182 438" enable-background="new -326.571 -53.68 1821.182 438"
	 xml:space="preserve">
<g>
	<g>
		<path fill="#262626" d="M494.092,308.859h-74.333l-47.036-173.865l-47.456,173.865h-73.913L171.14,27.483h70.974l49.136,177.225
			l48.295-177.225h65.935l48.295,177.225l49.135-177.225h71.393L494.092,308.859z"/>
		<path fill="#262626" d="M714.571,27.483c63.416,0,103.311,39.057,103.311,97.012c0,59.215-41.156,98.271-106.25,98.271h-66.354
			v86.094h-69.294V27.483H714.571z M706.592,164.812c26.877,0,43.256-15.538,43.256-39.476c0-22.678-16.379-38.637-43.256-38.637
			h-61.315v78.113H706.592z"/>
		<path fill="#262626" d="M1022.4,308.859l-73.914-107.512l-49.555,59.216v48.296h-69.294V27.483h69.294v139.008l117.17-139.008
			h78.531l-101.21,120.529l112.97,160.847H1022.4z"/>
		<path fill="#262626" d="M1180.303,35.883c0,21.418-16.379,37.377-39.058,37.377c-22.677,0-38.635-15.959-38.635-37.377
			c0-20.579,15.958-38.217,38.635-38.217C1163.924-2.333,1180.303,15.305,1180.303,35.883z M1107.649,308.859V98.038h67.193v210.822
			H1107.649z"/>
		<path fill="#262626" d="M1357.944,299.619c-16.379,8.819-33.598,15.538-57.535,15.538c-52.494,0-83.99-28.557-83.99-83.992
			v-79.792h-38.22V98.038h38.22V27.483h67.191v70.554h62.154v53.335h-62.154v73.073c0,21.838,10.499,30.657,28.139,30.657
			c9.239,0,21.838-3.359,30.657-8.399L1357.944,299.619z"/>
	</g>
	<g>
		<g>
			<g>
				<g>
					<path fill="#FB0E2A" d="M-73.759,288.58c65.034,0,117.943-52.909,117.943-117.944c0-16.266-3.288-32.059-9.772-46.941
						l-3.109-7.137h72.495l1.049,3.714c4.611,16.332,6.95,33.277,6.95,50.364c0,102.316-83.24,185.558-185.556,185.558"/>
				</g>
			</g>
		</g>
		<path fill="#FFAE00" d="M-73.759,356.193c-102.316,0-185.556-83.241-185.556-185.558c0-17.085,2.339-34.031,6.949-50.364
			l1.049-3.714h198.363v5.1c0,0.662-0.078,16.375-6.836,32.302c-9.277,21.862-26.467,33.417-49.711,33.417h-81.002
			c8.201,58.083,57.438,101.204,116.743,101.204"/>
		<path fill="#254ED5" d="M20.141,99.369C-2.144,69.957-36.512,52.693-73.759,52.693c-37.247,0-71.617,17.265-93.899,46.678h-77.417
			c13.616-32.65,36.131-60.576,65.341-80.973c31.214-21.796,67.86-33.317,105.975-33.317S1.002-3.398,32.217,18.398
			c29.208,20.396,51.722,48.318,65.337,80.967L20.141,99.369z"/>
	</g>
</g>
</svg>
