<?xml version="1.0" encoding="utf-8"?>
<!-- Generator: Adobe Illustrator 16.0.0, SVG Export Plug-In . SVG Version: 6.00 Build 0)  -->
<!DOCTYPE svg PUBLIC "-//W3C//DTD SVG 1.1 Tiny//EN" "http://www.w3.org/Graphics/SVG/1.1/DTD/svg11-tiny.dtd">
<svg version="1.1" baseProfile="tiny" id="Layer_1" xmlns="http://www.w3.org/2000/svg" xmlns:xlink="http://www.w3.org/1999/xlink"
	 x="0px" y="0px" width="630.867px" height="630.871px" viewBox="0 0 630.867 630.871" overflow="scroll" xml:space="preserve">
<g>
	<g>
		<path fill="#EE2130" d="M317.434,501.146c101.297,0,183.71-82.413,183.71-183.713c0-25.335-5.12-49.935-15.221-73.116
			L481.08,233.2H594l1.635,5.785c7.182,25.439,10.824,51.833,10.824,78.448c0,159.37-129.655,289.029-289.024,289.029"/>
	</g>
	<path fill="#FBAD18" d="M317.434,606.462c-159.37,0-289.026-129.659-289.026-289.029c0-26.613,3.643-53.007,10.825-78.448
		l1.634-5.785h308.975v7.944c0,1.031-0.122,25.507-10.647,50.313c-14.451,34.053-41.226,52.051-77.431,52.051H135.592
		c12.775,90.471,89.467,157.638,181.842,157.638"/>
	<path fill="#3F5AA8" d="M463.693,206.427c-34.711-45.813-88.243-72.704-146.259-72.704c-58.018,0-111.552,26.892-146.26,72.706
		H50.588c21.209-50.857,56.278-94.354,101.776-126.125c48.619-33.95,105.7-51.896,165.069-51.896
		c59.368,0,116.449,17.945,165.07,51.896c45.494,31.769,80.563,75.262,101.77,126.117L463.693,206.427z"/>
</g>
</svg>
