<?xml version="1.0" encoding="UTF-8"?>
<svg width="24px" height="18px" viewBox="0 0 24 18" version="1.1" xmlns="http://www.w3.org/2000/svg" xmlns:xlink="http://www.w3.org/1999/xlink">
    <!-- Generator: Sketch 43.1 (39012) - http://www.bohemiancoding.com/sketch -->
    <title>assets / youtube icon</title>
    <desc>Created with Sketch.</desc>
    <defs></defs>
    <g id="Desktop" stroke="none" stroke-width="1" fill="none" fill-rule="evenodd">
        <g id="Home" transform="translate(-1336.000000, -63.000000)" fill="#938383">
            <g id="Header" transform="translate(319.000000, 60.000000)">
                <g id="Social-icons" transform="translate(883.000000, 0.000000)">
                    <g id="assets-/-youtube-icon" transform="translate(134.000000, 3.000000)">
                        <path d="M23.76,3.88270588 C23.76,3.88270588 23.5255,2.11923529 22.8065,1.34258824 C21.8935,0.322941176 20.8705,0.318176471 20.4015,0.258882353 C17.043,0 12.0055,0 12.0055,0 L11.995,0 C11.995,0 6.9575,0 3.5985,0.258882353 C3.129,0.318176471 2.107,0.322941176 1.1935,1.34258824 C0.4745,2.11923529 0.24,3.88270588 0.24,3.88270588 C0.24,3.88270588 -2.27373675e-13,5.95429412 -2.27373675e-13,8.02482353 L-2.27373675e-13,9.96617647 C-2.27373675e-13,12.0377647 0.24,14.1082941 0.24,14.1082941 C0.24,14.1082941 0.4745,15.8717647 1.1935,16.6484118 C2.107,17.6680588 3.306,17.6362941 3.8405,17.7427059 C5.76,17.9391176 12,18 12,18 C12,18 17.043,17.9920588 20.4015,17.7326471 C20.8705,17.6728235 21.8935,17.6680588 22.8065,16.6484118 C23.5255,15.8717647 23.76,14.1082941 23.76,14.1082941 C23.76,14.1082941 24,12.0377647 24,9.96617647 L24,8.02482353 C24,5.95429412 23.76,3.88270588 23.76,3.88270588 L23.76,3.88270588 Z M9.522,12.3194118 L9.5215,5.12894118 L16.006,8.73635294 L9.522,12.3194118 Z" id="YouTube"></path>
                    </g>
                </g>
            </g>
        </g>
    </g>
</svg>