<?xml version="1.0" encoding="UTF-8"?>
<svg width="22px" height="16px" viewBox="0 0 22 16" version="1.1" xmlns="http://www.w3.org/2000/svg" xmlns:xlink="http://www.w3.org/1999/xlink">
    <!-- Generator: Sketch 43.1 (39012) - http://www.bohemiancoding.com/sketch -->
    <title>assets / twitter icon</title>
    <desc>Created with Sketch.</desc>
    <defs></defs>
    <g id="Desktop" stroke="none" stroke-width="1" fill="none" fill-rule="evenodd">
        <g id="Home" transform="translate(-1290.000000, -63.000000)" fill="#938383">
            <g id="Header" transform="translate(319.000000, 60.000000)">
                <g id="Social-icons" transform="translate(883.000000, 0.000000)">
                    <g id="assets-/-twitter-icon" transform="translate(88.000000, 3.000000)">
                        <path d="M21.7185185,1.894 C20.9247185,2.2152 20.0701685,2.4324 19.1742185,2.5296 C20.0895185,2.0304 20.7915185,1.2388 21.1227185,0.2956 C20.2654685,0.758 19.3186685,1.094 18.3066185,1.2744 C17.5006685,0.49 16.3477685,0 15.0724685,0 C12.6271685,0 10.6426685,1.8084 10.6426685,4.0388 C10.6426685,4.3556 10.6809185,4.6628 10.7569685,4.9588 C7.07371852,4.79 3.80941852,3.1836 1.62196852,0.7372 C1.24036852,1.3356 1.02256852,2.0304 1.02256852,2.77 C1.02256852,4.1704 1.80466852,5.4072 2.99401852,6.1316 C2.26861852,6.112 1.58416852,5.9284 0.985668519,5.628 L0.985668519,5.6776 C0.985668519,7.6352 2.51341852,9.2684 4.54201852,9.638 C4.17031852,9.7328 3.77881852,9.7804 3.37426852,9.7804 C3.08896852,9.7804 2.80996852,9.7556 2.53996852,9.7084 C3.10426852,11.3124 4.74001852,12.4808 6.67951852,12.512 C5.16301852,13.596 3.25141852,14.242 1.17601852,14.242 C0.818268519,14.242 0.464568519,14.2236 0.118518519,14.1864 C2.07961852,15.3308 4.41016852,16 6.91171852,16 C15.0639185,16 19.5198185,9.846 19.5198185,4.508 C19.5198185,4.3324 19.5162185,4.1568 19.5085685,3.9848 C20.3748185,3.4148 21.1267685,2.704 21.7185185,1.894" id="Twitter"></path>
                    </g>
                </g>
            </g>
        </g>
    </g>
</svg>