<?xml version="1.0" encoding="UTF-8"?>
<svg width="300px" height="159px" viewBox="0 0 300 159" version="1.1" xmlns="http://www.w3.org/2000/svg" xmlns:xlink="http://www.w3.org/1999/xlink">
    <defs></defs>
    <g id="Desktop" stroke="none" stroke-width="1" fill="none" fill-rule="evenodd">
        <g id="Home" transform="translate(-570.000000, -60.000000)" fill="#424242">
            <g id="Header" transform="translate(319.000000, 60.000000)">
                <g id="Logo" transform="translate(251.000000, 0.000000)">
                    <g id="assets-/-logo-full">
                        <path d="M210.143264,32.4784365 C203.835621,32.4784365 198.722723,27.3692094 198.722723,21.0671611 C198.722723,14.7646354 203.835621,9.65588557 210.143264,9.65588557 C216.45043,9.65588557 221.563806,14.7646354 221.563806,21.0671611 C221.563806,27.3692094 216.45043,32.4784365 210.143264,32.4784365 Z M205.103073,39.4832423 C218.24957,46.4859956 226.913742,53.1980613 226.913742,69.8164144 C226.913742,88.7282873 206.466927,96.5668269 206.466927,96.5668269 C206.466927,96.5668269 213.539857,92.1325295 213.539857,81.6300702 C213.539857,71.1276109 205.10785,64.9926243 196.43699,61.2093905 C187.766131,57.4261568 159.623455,49.1742586 159.623455,27.7731648 C159.623455,6.37207112 177.29336,-0.000143195827 183.168678,-0.000143195827 C183.168678,-0.000143195827 174.328232,4.40217386 174.328232,13.5967779 C174.328232,28.3731554 191.956576,32.480489 205.103073,39.4832423 Z M170.888742,65.3340032 C177.195908,65.3340032 182.309283,70.4432303 182.309283,76.7452786 C182.309283,83.0478043 177.195908,88.1570315 170.888742,88.1570315 C164.581099,88.1570315 159.468201,83.0478043 159.468201,76.7452786 C159.468201,70.4432303 164.581099,65.3340032 170.888742,65.3340032 Z M115.310971,46.3244229 C115.310971,46.3244229 146.084379,47.7802472 146.084379,72.85145 C146.084379,102.060535 105.698073,97.8863765 105.698073,97.8863765 C105.698073,97.8863765 123.943137,96.5670656 123.943137,73.9359197 C123.943137,50.9653997 114.572436,46.4752559 106.718933,46.4752559 L106.718933,46.1058107 C106.718933,46.1058107 113.596959,45.1898347 116.235334,38.4071257 C118.87371,31.6239393 120.944092,21.625052 116.509538,10.6132929 C113.743615,3.74371171 105.698073,1.34852284 105.698073,1.34852284 C105.698073,1.34852284 138.970366,0.527056109 138.970366,23.5791977 C138.970366,43.806563 115.310971,46.3244229 115.310971,46.3244229 Z M72.7800955,97.9163521 L72.7800955,1.52169433 L95.991879,1.52169433 L95.991879,97.9163521 L72.7800955,97.9163521 Z M7.01703822,157.547295 C9.76910828,157.547295 11.5117834,156.287172 11.5117834,154.270975 L11.5117834,154.225152 C11.5117834,152.2543 9.79203822,151.109211 6.6272293,151.109211 L1.19235669,151.109211 L1.19235669,157.547295 L7.01703822,157.547295 Z M6.48964968,150.008989 C8.8977707,150.008989 10.6175159,148.840511 10.6175159,146.709758 L10.6175159,146.663458 C10.6175159,144.899285 9.17245223,143.707896 6.60429936,143.707896 L1.19235669,143.707896 L1.19235669,150.008989 L6.48964968,150.008989 Z M0,142.608152 L6.6272293,142.608152 C8.43869427,142.608152 9.90621019,143.135112 10.8009554,144.028654 C11.4659236,144.693083 11.8328025,145.54128 11.8328025,146.549378 L11.8328025,146.595201 C11.8328025,148.771777 10.4106688,149.871521 9.10414013,150.398482 C11.0302548,150.902531 12.7270701,152.002753 12.7270701,154.225152 L12.7270701,154.270975 C12.7270701,156.9516 10.4340764,158.647516 6.97117834,158.647516 L0,158.647516 L0,142.608152 Z M36.5968471,153.079442 L32.3772611,143.799875 L28.1347452,153.079442 L36.5968471,153.079442 Z M31.8269427,142.493452 L32.9734395,142.493452 L40.4490764,158.647373 L39.1420701,158.647373 L37.1013057,154.156275 L27.6302866,154.156275 L25.5895223,158.647373 L24.3513057,158.647373 L31.8269427,142.493452 Z M59.6177389,150.925443 C62.3010191,150.925443 64.2959236,149.573674 64.2959236,147.259152 L64.2959236,147.213807 C64.2959236,145.059664 62.5991083,143.707896 59.6865287,143.707896 L54.2057962,143.707896 L54.2057962,150.925443 L59.6177389,150.925443 Z M53.0134395,142.608152 L59.7553185,142.608152 C61.7277707,142.608152 63.3099363,143.226758 64.2729936,144.189034 C65.0296815,144.945585 65.4882803,146.022418 65.4882803,147.167984 L65.4882803,147.213807 C65.4882803,149.894433 63.4933758,151.429969 60.7871656,151.796073 L66.0849363,158.647516 L64.5710828,158.647516 L59.4572293,152.002753 L54.2057962,152.002753 L54.2057962,158.647516 L53.0134395,158.647516 L53.0134395,142.608152 Z M85.7806051,157.547295 C88.5326752,157.547295 90.2753503,156.287172 90.2753503,154.270975 L90.2753503,154.225152 C90.2753503,152.2543 88.5556051,151.109211 85.3907962,151.109211 L79.9559236,151.109211 L79.9559236,157.547295 L85.7806051,157.547295 Z M85.2532166,150.008989 C87.6613376,150.008989 89.3810828,148.840511 89.3810828,146.709758 L89.3810828,146.663458 C89.3810828,144.899285 87.9364968,143.707896 85.3678662,143.707896 L79.9559236,143.707896 L79.9559236,150.008989 L85.2532166,150.008989 Z M78.7635669,142.608152 L85.3907962,142.608152 C87.2027389,142.608152 88.6702548,143.135112 89.5645223,144.028654 C90.2294904,144.693083 90.5963694,145.54128 90.5963694,146.549378 L90.5963694,146.595201 C90.5963694,148.771777 89.1742357,149.871521 87.867707,150.398482 C89.7938217,150.902531 91.4906369,152.002753 91.4906369,154.225152 L91.4906369,154.270975 C91.4906369,156.9516 89.1976433,158.647516 85.7347452,158.647516 L78.7635669,158.647516 L78.7635669,142.608152 Z M115.360414,153.079442 L111.140828,143.799875 L106.898312,153.079442 L115.360414,153.079442 Z M110.59051,142.493452 L111.737006,142.493452 L119.212643,158.647373 L117.905637,158.647373 L115.864873,154.156275 L106.393854,154.156275 L104.353089,158.647373 L103.114873,158.647373 L110.59051,142.493452 Z M138.381545,150.925443 C141.064347,150.925443 143.059252,149.573674 143.059252,147.259152 L143.059252,147.213807 C143.059252,145.059664 141.362436,143.707896 138.450334,143.707896 L132.969602,143.707896 L132.969602,150.925443 L138.381545,150.925443 Z M131.777245,142.608152 L138.519124,142.608152 C140.491099,142.608152 142.073742,143.226758 143.036799,144.189034 C143.793487,144.945585 144.252086,146.022418 144.252086,147.167984 L144.252086,147.213807 C144.252086,149.894433 142.256704,151.429969 139.550971,151.796073 L144.848264,158.647516 L143.334889,158.647516 L138.221035,152.002753 L132.969602,152.002753 L132.969602,158.647516 L131.777245,158.647516 L131.777245,142.608152 Z M168.39707,153.079442 L164.177962,143.799875 L159.935446,153.079442 L168.39707,153.079442 Z M163.627643,142.493452 L164.77414,142.493452 L172.249299,158.647373 L170.942293,158.647373 L168.902006,154.156275 L159.43051,154.156275 L157.390223,158.647373 L156.151051,158.647373 L163.627643,142.493452 Z M199.832436,156.310179 L200.612532,155.416637 C202.377659,157.043341 204.005685,157.799415 206.368424,157.799415 C208.775589,157.799415 210.427022,156.447647 210.427022,154.614263 L210.427022,154.568917 C210.427022,152.873479 209.533232,151.887814 205.886895,151.154651 C202.033232,150.375666 200.474475,149.06972 200.474475,146.640642 L200.474475,146.594819 C200.474475,144.21204 202.652818,142.378657 205.634188,142.378657 C207.973041,142.378657 209.509825,143.020174 211.13785,144.326597 L210.381162,145.265962 C208.867787,143.960016 207.354411,143.455489 205.588328,143.455489 C203.226545,143.455489 201.666831,144.807735 201.666831,146.480262 L201.666831,146.526085 C201.666831,148.222001 202.538169,149.253011 206.345016,150.031996 C210.060143,150.78807 211.619379,152.116927 211.619379,154.453883 L211.619379,154.500183 C211.619379,157.089164 209.395175,158.876725 206.299156,158.876725 C203.730525,158.876725 201.759029,158.029006 199.832436,156.310179 Z M224.871975,158.647612 L224.871975,142.608247 L226.064331,142.608247 L226.064331,158.647612 L224.871975,158.647612 Z M240.166051,142.608247 L241.358408,142.608247 L241.358408,157.547391 L250.784045,157.547391 L250.784045,158.647612 L240.166051,158.647612 L240.166051,142.608247 Z M259.518774,142.608247 L260.848232,142.608247 L267.132468,157.3641 L273.438678,142.608247 L274.699825,142.608247 L267.635971,158.762168 L266.581672,158.762168 L259.518774,142.608247 Z M295.841274,153.079442 L291.62121,143.799875 L287.378694,153.079442 L295.841274,153.079442 Z M291.071847,142.493452 L292.217389,142.493452 L299.693503,158.647373 L298.386497,158.647373 L296.345255,154.156275 L286.874713,154.156275 L284.833471,158.647373 L283.595255,158.647373 L291.071847,142.493452 Z" id="BS-Logo-Full"></path>
                    </g>
                </g>
            </g>
        </g>
    </g>
</svg>